# xmcd CD database file
#
# Track frame offsets:
#	150
#	10462
#	19308
#	30562
#	41244
#	51618
#	66361
#	75707
#	86957
#	97351
#	106877
#	116489
#	125735
#	138366
#	149183
#	159073
#
# Disc length: 2282 seconds
#
# Revision: 3
# Processed by: cddbd v1.5.2PL0 Copyright (c) Steve Scherf et al.
# Submitted via: CDex 1.51
#
DISCID=f108e810
DTITLE=Floyd Cramer - Country Legends (RCA) - Floyd Cramer
DYEAR=2001
DGENRE=Country
TTITLE0=Flip Hop And Bop
TTITLE1=The Swingin' Shepard Blues
TTITLE2=Last Date
TTITLE3=San Antonio Rose
TTITLE4=Stormy Weather
TTITLE5=Rythm Of The Rain
TTITLE6=Java
TTITLE7=Drown In My Own Tears
TTITLE8=Don't Get Around Much Anymore
TTITLE9=Midnight
TTITLE10=Stood Up
TTITLE11=Dallas
TTITLE12=The Lonesome Road
TTITLE13=Yesterdays
TTITLE14=Tricky
TTITLE15=Woodchopper's Ball
EXTD=YEAR: 2001
EXTT0=
EXTT1=
EXTT2=
EXTT3=
EXTT4=
EXTT5=
EXTT6=
EXTT7=
EXTT8=
EXTT9=
EXTT10=
EXTT11=
EXTT12=
EXTT13=
EXTT14=
EXTT15=
PLAYORDER=
